PathFileType	4	(X/Y/Z)	C:\Github\BTS_project\Data\sports2d_results\test4 Exam_2026-03-06_143128_tvc2_Sports2D\test4 Exam_2026-03-06_143128_tvc2_Sports2D_m_person00.trc
DataRate	CameraRate	NumFrames	NumMarkers	Units	OrigDataRate	OrigDataStartFrame	OrigNumFrames
30.0	30.0	6	22	m	30.0	280	321
Frame#	Time	Hip			RHip			RKnee			RAnkle			RBigToe			RSmallToe			RHeel			LHip			LKnee			LAnkle			LBigToe			LSmallToe			LHeel			Neck			Head			Nose			RShoulder			RElbow			RWrist			LShoulder			LElbow			LWrist			
		X1	Y1	Z1	X2	Y2	Z2	X3	Y3	Z3	X4	Y4	Z4	X5	Y5	Z5	X6	Y6	Z6	X7	Y7	Z7	X8	Y8	Z8	X9	Y9	Z9	X10	Y10	Z10	X11	Y11	Z11	X12	Y12	Z12	X13	Y13	Z13	X14	Y14	Z14	X15	Y15	Z15	X16	Y16	Z16	X17	Y17	Z17	X18	Y18	Z18	X19	Y19	Z19	X20	Y20	Z20	X21	Y21	Z21	X22	Y22	Z22
280	9.362499999999999	2.176543531665405	0.5809963938003155	0.0301	2.0700462621436664	0.6577077370974282	0.0301	1.7530845404461266	0.3247156426608727	0.129	1.4780443641734127	-0.0007948845719511684	0.023	1.3916197439306646	-0.11474426962291259	0.2179	1.3512637077391962	-0.05676821619256395	0.1804	1.471862228469362	-0.04944211901681221	-0.0119	2.256994093084338	0.4750633358189965	0.0301	1.9895751006020483	0.15632758770411098	0.129	1.8036127708836107	0.11700362267545941	0.023	1.7000115908274007	0.014733713296859878	0.2179	1.750463580806949	-0.01898172839188301	0.1804	1.7812541543327043	0.1415486012753218	-0.0119	2.6295178504391368	1.059000281127895	0.0008	2.8489765975561125	1.2858373882353955	0.0655	2.7396862274640372	1.1731971950544369	0.1076	2.386795663401258	1.1315703678958735	-0.01275	2.0922151030856173	1.2061488130698101	0.0702	1.830432900196047	1.3627492695196766	0.1076	2.722525104227645	0.8176509534357453	-0.01275	2.7896181465827437	0.5381065424507344	0.0702	2.929458885191073	0.2863813729663557	0.1076
281	9.395937499999999	2.175077893687629	0.5822233720559676	0.0301	2.068772194628298	0.6589397604845323	0.0301	1.753721873137347	0.3240147647192764	0.129	1.4773443206119345	1.2803861918497433e-06	0.023	1.3961329424767277	-0.11002787262293612	0.2179	1.3556535497812743	-0.053878397852390784	0.1804	1.4710941944178744	-0.04612137500098304	-0.0119	2.257274045762825	0.4744307868438189	0.0301	1.9910765867131082	0.15559537561606193	0.129	1.8011811891794236	0.11781099322845276	0.023	1.6974497817726717	0.013330107411406417	0.2179	1.7486011412656812	-0.017879905509625035	0.1804	1.7791975283349348	0.14391040399831959	-0.0119	2.6302411959871046	1.059251949143814	0.0008	2.8506142983888347	1.2873745204811855	0.0655	2.740005553221063	1.1728095878701539	0.1076	2.3871389741471494	1.13179421569277	-0.01275	2.094296408627209	1.2044208008550876	0.0702	1.8337071883472458	1.3597974468325136	0.1076	2.7234476333237523	0.8169858670402141	-0.01275	2.789633175427177	0.5364096083906802	0.0702	2.9301371954324944	0.28469649999492264	0.1076
282	9.429374999999999	2.174458909603278	0.5828890592535788	0.0301	2.0676632767037266	0.6591467241869218	0.0301	1.7543388193888783	0.3242350716542342	0.129	1.4765231620187418	0.0006533509342052918	0.023	1.4016663923952493	-0.10294995592354168	0.2179	1.3617240899044165	-0.048513214781234555	0.1804	1.4701280711234346	-0.044487102629388875	-0.0119	2.2583703706071034	0.47308206980413936	0.0301	1.9936183929128353	0.15432474631545823	0.129	1.8003107372658291	0.11900120532033624	0.023	1.696727057015074	0.013078319788735816	0.2179	1.7474501524355504	-0.01488816723764373	0.1804	1.7775814052065444	0.14416567634979774	-0.0119	2.6300304147330555	1.0588883517149361	0.0008	2.850334233409658	1.2877762917319449	0.0655	2.738430461586691	1.1711542446459422	0.1076	2.38742272368032	1.132586171025864	-0.01275	2.0970445407931146	1.2021754111031768	0.0702	1.8380686125567678	1.3562992811467545	0.1076	2.7236121559620408	0.8175173527009062	-0.01275	2.789999351636715	0.5351126234587976	0.0702	2.9307648332546647	0.2832984866741763	0.1076
283	9.462812499999998	2.1736610841101793	0.58263949331053	0.0301	2.0663813678100196	0.6588120569974989	0.0301	1.754361717131391	0.32523635601391016	0.129	1.4761174281115244	0.0012835248609117157	0.023	1.4045878228895456	-0.09906106067830409	0.2179	1.3646991721268755	-0.04517269077643431	0.1804	1.469102559917079	-0.0442356963354373	-0.0119	2.258961340838762	0.4714131614465629	0.0301	1.9952246788222903	0.15368634331703668	0.129	1.8003378937253425	0.1194851797078511	0.023	1.6959194195503442	0.012322412225260489	0.2179	1.746785281717595	-0.013504312324859262	0.1804	1.7761682955536158	0.14192023108979415	-0.0119	2.629465986211364	1.0583827307946643	0.0008	2.849171983873106	1.2878475081617422	0.0655	2.737654900960668	1.171523896839506	0.1076	2.388346486536068	1.1329564990305139	-0.01275	2.0981957430089175	1.2005650147700977	0.0702	1.8417743409385507	1.3529915448653693	0.1076	2.7227044693386846	0.818507280065902	-0.01275	2.7902276794096235	0.5351587005775317	0.0702	2.930704843535644	0.28319482028916587	0.1076
284	9.496249999999998	2.172455855802622	0.5812120942819603	0.0301	2.0653512656864894	0.657822998105132	0.0301	1.7543422024840307	0.32563506810287446	0.129	1.4760919977963014	0.0012566014091680059	0.023	1.4043007355000454	-0.09943069685496855	0.2179	1.364005149306185	-0.04538340396137112	0.1804	1.4689745434285288	-0.0452028652129134	-0.0119	2.2583211535941916	0.46957668592634694	0.0301	1.9952961822941413	0.15409873632168963	0.129	1.7990755961613456	0.11953627236807852	0.023	1.6936367201022533	0.012131241576037967	0.2179	1.7461894763045827	-0.013334262754252472	0.1804	1.7749370577905619	0.13923517062299015	-0.0119	2.629480330119228	1.0583484618240402	0.0008	2.8482730723979373	1.287790184288804	0.0655	2.7386132226922664	1.1727967922803446	0.1076	2.3896809025847605	1.1321000994387815	-0.01275	2.0968773300571857	1.200275721525781	0.0702	1.8421528830050522	1.3513379701654586	0.1076	2.7214624174738073	0.8189542852202315	-0.01275	2.7899132354734744	0.5355350897971518	0.0702	2.9297802291216306	0.2843174792184781	0.1076
285	9.529687499999998	2.172331130098278	0.5790921198869156	0.0301	2.0652462933200733	0.6561738707928281	0.0301	1.7548943880329866	0.32533018149801785	0.129	1.476624594356405	0.00044756077737486826	0.023	1.4031091283648585	-0.1013989773680231	0.2179	1.3626740474431176	-0.046945141958537086	0.1804	1.4706770183360303	-0.04760942660604249	-0.0119	2.2575761797097083	0.4683485072543177	0.0301	1.9938240931276137	0.1556838098883238	0.129	1.7952903755501661	0.1189454673727362	0.023	1.6918075125996768	0.012960014225823253	0.2179	1.7456288835868756	-0.013569585180472795	0.1804	1.773445841704444	0.13730537083845565	-0.0119	2.630162900507848	1.0586300687006744	0.0008	2.847184151665735	1.2866189788723454	0.0655	2.7401688658980308	1.1722703333731521	0.1076	2.3900925642997466	1.1304376896435846	-0.01275	2.0957007343392364	1.200274928624076	0.0702	1.839752934924627	1.3513598398166962	0.1076	2.7203697817632198	0.818470530407874	-0.01275	2.789736120128404	0.5349198519286957	0.0702	2.9283688172960183	0.2855816000704952	0.1076
